# xmcd
#
# Track frame offsets:
#	150
#	1539
#	16478
#	35178
#	47886
#	67747
#	86952
#	138172
#	154551
#	165929
#	191985
#	213040
#	232563
#	245593
#
# Disc length: 3516 seconds
#
# Revision: 0
# Processed by: cddbd v1.5.2PL0 Copyright (c) Steve Scherf et al.
# Submitted via: EasyCDDAExtractor 11.1.0.1
#
DISCID=a50dba0e
DTITLE=Honey B. and T-Bones - Live! Vol.1 Rockender tornado aus Finnland - Live 
DTITLE=in Hannover 1994 cd1
DYEAR=2007
DGENRE=Blues
TTITLE0=Intro
TTITLE1=Saved
TTITLE2=While  The Cat's Away
TTITLE3=Wasted Valley
TTITLE4=Shake Your Shimmy
TTITLE5=Bumble Bee
TTITLE6=Help Me
TTITLE7=Killing Floor
TTITLE8=Casting My Spell
TTITLE9=Shake Your Moneymaker
TTITLE10=Comin' Home
TTITLE11=Wolf Is Back
TTITLE12=Do The Poodle
TTITLE13=Mojo Boogie
EXTD=
EXTT0=
EXTT1=
EXTT2=
EXTT3=
EXTT4=
EXTT5=
EXTT6=
EXTT7=
EXTT8=
EXTT9=
EXTT10=
EXTT11=
EXTT12=
EXTT13=
PLAYORDER=
